<?xml version="1.0" encoding="UTF-8"?>
<svg id="_レイヤー_2" data-name="レイヤー 2" xmlns="http://www.w3.org/2000/svg" viewBox="0 0 412.45 136.7">
  <g id="content">
    <g>
      <g>
        <path d="M28.71,47.47c-.19,2-.8,3.93-1.82,5.79-1.03,1.86-2.63,3.47-4.82,4.82s-5.28,2.02-9.27,2.02c-1.41,0-2.86-.12-4.37-.36-1.51-.24-2.89-.69-4.13-1.34-1.24-.65-2.27-1.54-3.08-2.67-.81-1.13-1.21-2.56-1.21-4.29,0-.27.03-.71.08-1.34.05-.62.28-1.26.69-1.9.4-.65,1.04-1.23,1.9-1.74.86-.51,2.11-.77,3.73-.77.43,0,.93.04,1.5.12.57.08,1.11.26,1.62.53.51.27.94.66,1.3,1.17.35.51.53,1.2.53,2.07,0,.38-.05.86-.16,1.46-.11.59-.24,1.21-.41,1.86-.16.65-.3,1.24-.4,1.78-.11.54-.16.92-.16,1.13,0,.81.15,1.43.45,1.86.3.43.63.74,1.01.93.38.19.77.3,1.17.32.41.03.72.04.93.04.92,0,1.61-.17,2.07-.53.46-.35.8-.8,1.01-1.34.21-.54.34-1.12.36-1.74.03-.62.04-1.17.04-1.66V2.43h-7.45v-1.13h26.65v1.13h-7.45v40.01c0,1.35-.09,3.02-.28,5.02Z"/>
        <path d="M44.91,17.82c1.86-3.73,4.25-6.91,7.17-9.56,2.92-2.65,6.18-4.68,9.8-6.12,3.62-1.43,7.15-2.15,10.61-2.15,3.73,0,7.41.7,11.06,2.11,3.64,1.4,6.88,3.4,9.72,5.99,2.83,2.59,5.13,5.74,6.88,9.44,1.75,3.7,2.63,7.87,2.63,12.51,0,4.05-.82,7.9-2.47,11.54-1.65,3.65-3.86,6.84-6.64,9.6-2.78,2.75-5.99,4.93-9.64,6.52-3.64,1.59-7.49,2.39-11.54,2.39s-7.83-.77-11.5-2.31c-3.67-1.54-6.9-3.65-9.68-6.32-2.78-2.67-5.01-5.82-6.68-9.44-1.67-3.62-2.51-7.53-2.51-11.74,0-4.59.93-8.75,2.79-12.47ZM56.29,44.27c.65,3.7,1.66,6.64,3.04,8.83s3.16,3.71,5.35,4.58c2.19.86,4.79,1.3,7.82,1.3,4,0,7.13-.74,9.4-2.23,2.27-1.48,3.97-3.54,5.1-6.16,1.13-2.62,1.85-5.72,2.15-9.32.3-3.59.45-7.49.45-11.7,0-3.78-.12-7.38-.36-10.81-.24-3.43-.93-6.45-2.07-9.07-1.13-2.62-2.85-4.7-5.14-6.24-2.3-1.54-5.47-2.31-9.52-2.31-3.78,0-6.8.72-9.07,2.15-2.27,1.43-4,3.44-5.18,6.03-1.19,2.59-1.97,5.67-2.35,9.23-.38,3.56-.57,7.48-.57,11.75,0,5.62.32,10.27.97,13.97Z"/>
        <path d="M136,1.3v1.13h-7.45v55.4h7.45v1.13h-26.65v-1.13h7.45V2.43h-7.45v-1.13h26.65Z"/>
        <path d="M161.03,1.3l26.97,38.56h.16V2.43h-7.45v-1.13h16.2v1.13h-7.45v56.54h-2.19L150.82,7.05h-.16v50.79h7.45v1.13h-16.2v-1.13h7.45V2.43h-7.45v-1.13h19.12Z"/>
        <path d="M227.89,17.82c1.86-3.73,4.25-6.91,7.17-9.56,2.92-2.65,6.18-4.68,9.8-6.12,3.62-1.43,7.15-2.15,10.61-2.15,3.73,0,7.41.7,11.06,2.11,3.64,1.4,6.88,3.4,9.72,5.99,2.83,2.59,5.13,5.74,6.88,9.44,1.75,3.7,2.63,7.87,2.63,12.51,0,4.05-.82,7.9-2.47,11.54-1.65,3.65-3.86,6.84-6.64,9.6-2.78,2.75-5.99,4.93-9.64,6.52-3.64,1.59-7.49,2.39-11.54,2.39s-7.83-.77-11.5-2.31c-3.67-1.54-6.9-3.65-9.68-6.32-2.78-2.67-5.01-5.82-6.68-9.44-1.67-3.62-2.51-7.53-2.51-11.74,0-4.59.93-8.75,2.79-12.47ZM239.27,44.27c.65,3.7,1.66,6.64,3.04,8.83s3.16,3.71,5.35,4.58c2.19.86,4.79,1.3,7.82,1.3,4,0,7.13-.74,9.4-2.23,2.27-1.48,3.97-3.54,5.1-6.16,1.13-2.62,1.85-5.72,2.15-9.32.3-3.59.45-7.49.45-11.7,0-3.78-.12-7.38-.36-10.81-.24-3.43-.93-6.45-2.07-9.07-1.13-2.62-2.85-4.7-5.14-6.24-2.3-1.54-5.47-2.31-9.52-2.31-3.78,0-6.8.72-9.07,2.15-2.27,1.43-4,3.44-5.18,6.03-1.19,2.59-1.97,5.67-2.35,9.23-.38,3.56-.57,7.48-.57,11.75,0,5.62.32,10.27.97,13.97Z"/>
        <path d="M318.49,1.3v1.13h-7.45v36.37c0,2.54.12,5.01.36,7.41.24,2.4.81,4.55,1.7,6.44.89,1.89,2.21,3.42,3.97,4.58,1.75,1.16,4.12,1.74,7.09,1.74s5.36-.34,7.33-1.01c1.97-.67,3.6-1.57,4.9-2.67,1.3-1.11,2.29-2.35,3-3.73.7-1.38,1.21-2.75,1.54-4.13s.51-2.67.57-3.89c.05-1.21.08-2.23.08-3.04V2.43h-7.37v-1.13h16.2v1.13h-7.53v37.99c0,.86-.03,1.96-.08,3.28-.05,1.32-.27,2.71-.65,4.17s-.95,2.92-1.7,4.37c-.76,1.46-1.86,2.77-3.32,3.93-1.46,1.16-3.29,2.11-5.51,2.83-2.21.73-4.94,1.09-8.18,1.09-5.24,0-9.45-.58-12.64-1.74-3.19-1.16-5.63-2.67-7.33-4.54-1.7-1.86-2.82-3.98-3.36-6.36-.54-2.38-.81-4.78-.81-7.21V2.43h-7.53v-1.13h26.73Z"/>
        <path d="M355.02,2.43v-1.13h12.23c2.27,0,4.51-.04,6.72-.12,2.21-.08,4.46-.12,6.72-.12,2.11,0,4.33.22,6.68.65,2.35.43,4.5,1.17,6.44,2.23,1.94,1.05,3.55,2.47,4.82,4.25,1.27,1.78,1.9,4.02,1.9,6.72,0,2.16-.49,4.01-1.46,5.55-.97,1.54-2.23,2.79-3.77,3.77s-3.25,1.71-5.14,2.23c-1.89.51-3.75.85-5.59,1.01v.4c2.64.49,5.01.97,7.09,1.46,2.08.49,3.87,1.21,5.39,2.19,1.51.97,2.71,2.32,3.6,4.05.89,1.73,1.44,4.05,1.66,6.97.27,3.4.49,6.13.65,8.18.16,2.05.39,3.65.69,4.78.3,1.13.7,1.89,1.21,2.27.51.38,1.26.57,2.23.57,1.08,0,1.97-.31,2.67-.93.7-.62,1.32-1.2,1.86-1.74l.81.73c-.54.54-1.07,1.04-1.58,1.5-.51.46-1.11.85-1.78,1.17-.68.32-1.5.58-2.47.77-.97.19-2.19.28-3.64.28-2.97,0-5.29-.47-6.97-1.42-1.67-.94-2.92-2.12-3.73-3.52-.81-1.4-1.31-2.93-1.5-4.58-.19-1.65-.31-3.2-.36-4.66-.11-2.21-.26-4.36-.45-6.44-.19-2.08-.63-3.93-1.34-5.55-.7-1.62-1.76-2.92-3.16-3.89-1.41-.97-3.38-1.46-5.91-1.46h-5.35v29.24h7.45v1.13h-26.65v-1.13h7.45V2.43h-7.45ZM377.54,27.46c2.43,0,4.35-.32,5.75-.97s2.46-1.52,3.16-2.63c.7-1.11,1.15-2.36,1.34-3.77.19-1.4.28-2.83.28-4.29,0-2.38-.16-4.41-.49-6.12-.32-1.7-.87-3.1-1.62-4.21-.76-1.11-1.8-1.93-3.12-2.47-1.32-.54-3.01-.81-5.06-.81-.59,0-1.19.03-1.78.08-.6.05-1.19.11-1.78.16v25.03h3.32Z"/>
      </g>
      <g>
        <path d="M39.84,79.83v1.08h-5.68l14,40.55h.16l8.17-22.93-6.07-17.62h-4.2v-1.08h23.25v1.08h-7.23l14.07,40.63h.16l14.39-40.63h-6.69v-1.08h14.31v1.08h-6.3l-19.98,55.79h-2.25l-12.75-36.4h-.16l-13.06,36.4h-2.25l-19.29-55.79h-6.38v-1.08h23.79Z"/>
        <path d="M140.69,79.83v13.16h-1.01c-.26-.87-.7-1.99-1.32-3.35-.62-1.36-1.49-2.68-2.61-3.96-1.12-1.28-2.55-2.4-4.32-3.35-1.76-.95-3.92-1.42-6.45-1.42h-12.36v23.78h4.35c1.92,0,3.54-.27,4.86-.81,1.32-.54,2.42-1.31,3.3-2.31.88-1,1.61-2.21,2.18-3.62.57-1.41,1.04-2.99,1.4-4.73h1.01v23.93h-1.01c-.36-1.49-.79-2.92-1.28-4.31-.49-1.39-1.15-2.6-1.98-3.66-.83-1.05-1.85-1.89-3.07-2.5-1.22-.62-2.74-.92-4.55-.92h-5.21v27.78h12.75c2.38,0,4.54-.4,6.45-1.19,1.92-.79,3.62-1.91,5.09-3.35,1.48-1.44,2.71-3.12,3.69-5.04.98-1.92,1.74-3.99,2.25-6.19h1.01v16.85h-49.69v-1.08h7.15v-52.63h-7.15v-1.08h46.5Z"/>
        <path d="M143.72,80.91v-1.08h7.15c2.64,0,5.29-.04,7.93-.12,2.64-.08,5.29-.12,7.93-.12,2.33,0,4.79.15,7.39.46,2.59.31,5.16.86,7.7,1.65,2.54.8,4.95,1.86,7.23,3.19,2.28,1.33,4.3,3.03,6.07,5.08,1.76,2.05,3.16,4.49,4.2,7.31,1.04,2.82,1.55,6.13,1.55,9.93s-.52,7.03-1.55,9.85c-1.04,2.82-2.42,5.26-4.16,7.31-1.74,2.05-3.72,3.75-5.95,5.08-2.23,1.33-4.55,2.4-6.96,3.19-2.41.8-4.8,1.35-7.15,1.65-2.36.31-4.55.46-6.57.46-2.96,0-5.9-.03-8.83-.08-2.93-.05-5.87-.08-8.83-.08h-7.15v-1.08h7.15v-52.63h-7.15ZM166.27,133.77c3.37,0,6.25-.4,8.63-1.19,2.38-.79,4.39-1.87,6.03-3.23,1.63-1.36,2.93-2.91,3.89-4.66.96-1.74,1.68-3.58,2.18-5.5.49-1.92.82-3.85.97-5.77.16-1.92.23-3.73.23-5.42,0-4.16-.26-7.91-.78-11.27-.52-3.36-1.54-6.23-3.07-8.62-1.53-2.39-3.68-4.22-6.45-5.5-2.77-1.28-6.42-1.92-10.93-1.92-1.04,0-1.97.01-2.8.04-.83.03-1.5.09-2.02.19v52.63c1.5.15,2.88.23,4.12.23Z"/>
        <path d="M200.88,80.91v-1.08h7.15c2.64,0,5.29-.04,7.93-.12,2.64-.08,5.29-.12,7.93-.12,2.33,0,4.79.15,7.39.46,2.59.31,5.16.86,7.7,1.65,2.54.8,4.95,1.86,7.23,3.19,2.28,1.33,4.3,3.03,6.07,5.08,1.76,2.05,3.16,4.49,4.2,7.31,1.04,2.82,1.55,6.13,1.55,9.93s-.52,7.03-1.55,9.85c-1.04,2.82-2.42,5.26-4.16,7.31-1.74,2.05-3.72,3.75-5.95,5.08-2.23,1.33-4.55,2.4-6.96,3.19-2.41.8-4.8,1.35-7.15,1.65-2.36.31-4.55.46-6.57.46-2.96,0-5.9-.03-8.83-.08-2.93-.05-5.87-.08-8.83-.08h-7.15v-1.08h7.15v-52.63h-7.15ZM223.43,133.77c3.37,0,6.25-.4,8.63-1.19,2.38-.79,4.39-1.87,6.03-3.23,1.63-1.36,2.93-2.91,3.89-4.66.96-1.74,1.68-3.58,2.18-5.5.49-1.92.82-3.85.97-5.77.16-1.92.23-3.73.23-5.42,0-4.16-.26-7.91-.78-11.27-.52-3.36-1.54-6.23-3.07-8.62-1.53-2.39-3.68-4.22-6.45-5.5-2.77-1.28-6.42-1.92-10.93-1.92-1.04,0-1.97.01-2.8.04-.83.03-1.5.09-2.02.19v52.63c1.5.15,2.88.23,4.12.23Z"/>
        <path d="M284.16,79.83v1.08h-7.15v52.63h7.15v1.08h-25.58v-1.08h7.15v-52.63h-7.15v-1.08h25.58Z"/>
        <path d="M301.96,79.83l25.89,36.63h.16v-35.55h-7.15v-1.08h15.55v1.08h-7.15v53.71h-2.1l-34.99-49.32h-.16v48.25h7.15v1.08h-15.55v-1.08h7.15v-52.63h-7.15v-1.08h18.35Z"/>
        <path d="M382.05,95.53c-1.35-5.03-3.37-8.94-6.07-11.73-2.7-2.8-6.3-4.17-10.81-4.12-3.58,0-6.45.68-8.63,2.04-2.18,1.36-3.85,3.13-5.02,5.31-1.17,2.18-1.93,4.67-2.29,7.46-.36,2.8-.54,5.63-.54,8.5v6.69c0,4.67.31,8.59.93,11.77.62,3.18,1.59,5.75,2.92,7.7,1.32,1.95,3.03,3.35,5.13,4.19,2.1.85,4.6,1.27,7.5,1.27,2.38,0,4.28-.42,5.68-1.27,1.4-.85,2.47-2,3.23-3.46.75-1.46,1.23-3.19,1.44-5.19.21-2,.31-4.18.31-6.54v-2.92h-8.01v-1.08h24.03v1.08h-5.05v17.62h-1.4c-.1-.62-.4-1.06-.89-1.35-.49-.28-1.05-.42-1.67-.42-1.24,0-2.42.24-3.54.73-1.12.49-2.32,1.01-3.62,1.58-1.3.56-2.79,1.09-4.47,1.58s-3.72.73-6.1.73c-3.79,0-7.44-.73-10.96-2.19s-6.62-3.46-9.29-6c-2.67-2.54-4.81-5.53-6.42-8.96-1.61-3.44-2.41-7.16-2.41-11.16,0-4.36.89-8.31,2.68-11.85,1.79-3.54,4.08-6.57,6.88-9.08,2.8-2.51,5.92-4.45,9.37-5.81,3.45-1.36,6.83-2.04,10.15-2.04,1.55,0,3.06.15,4.51.46,1.45.31,2.8.63,4.04.96,1.24.33,2.36.65,3.34.96.98.31,1.81.46,2.49.46.72,0,1.24-.12,1.55-.35.31-.23.6-.65.86-1.27h1.32v15.7h-1.17Z"/>
      </g>
    </g>
  </g>
</svg>